<svg version="1.1" id="Layer_1" xmlns="http://www.w3.org/2000/svg" xmlns:xlink="http://www.w3.org/1999/xlink" x="0px" y="0px" enable-background="new 0 0 640 608" xml:space="preserve" viewBox="83.68 55.12 371.76 357.31">  <path fill="#FFF" opacity="1.000000" stroke="none" d=" M100.233574,302.644775  	C97.170296,298.682892 94.030067,295.482178 89.618675,293.358948  	C83.645073,290.483826 82.280090,285.502930 85.080612,279.515778  	C85.781380,278.017639 86.520515,276.376343 87.694321,275.289185  	C92.152451,271.159973 93.515236,265.821106 95.505440,260.284119  	C97.616486,254.410950 99.201347,247.630371 102.587212,242.865204  	C107.708290,235.657974 112.248199,226.969009 119.454147,222.191071  	C127.505524,216.852554 133.968552,208.351379 144.885574,207.288223  	C148.091949,206.975967 151.001465,203.615326 154.329376,201.469772  	C153.538651,200.575073 153.078918,199.900635 152.476517,199.396774  	C145.377487,193.459152 144.792236,189.080872 149.970184,181.460266  	C154.056290,175.446594 159.510956,171.217636 166.416046,169.083466  	C169.258774,168.204834 170.558029,166.767838 170.659515,163.823776  	C170.806900,159.548218 173.791122,156.908463 176.151184,153.647781  	C180.200684,148.052917 185.359070,144.919556 191.057816,141.306549  	C197.532593,137.201523 202.743256,133.423325 210.492386,136.491501  	C211.726669,136.980194 213.154419,136.921753 214.031967,135.515305  	C210.453430,128.296661 210.641235,126.844841 217.625397,121.066460  	C224.073776,115.731346 229.754044,109.658272 235.534790,103.663986  	C236.968582,102.177231 238.377029,100.736847 236.744370,98.496559  	C234.833069,95.873932 236.406647,94.152573 238.441132,92.678329  	C244.519699,88.273621 250.763718,84.143639 257.718231,81.200058  	C259.398651,80.488800 261.348572,79.977409 262.607086,78.778442  	C269.766602,71.957756 278.671997,68.837685 287.467072,64.808624  	C294.138000,61.752632 301.312927,60.829693 307.686829,57.511162  	C307.978180,57.359474 308.377838,57.133495 308.626373,57.222679  	C317.397675,60.370102 325.583923,53.045067 334.259064,55.719280  	C346.718933,59.560196 359.573853,60.855705 372.442566,62.310425  	C377.210968,62.849461 381.432770,64.645187 384.385010,69.405136  	C386.729523,73.185211 391.676178,74.511414 395.676117,76.467834  	C400.900909,79.023376 406.405701,81.007797 411.796356,83.222519  	C424.866089,88.592117 431.269165,100.771774 428.534515,114.729523  	C427.499359,120.013016 425.609009,124.984177 423.491577,129.862350  	C420.694885,136.305496 420.962402,142.448639 424.427368,148.512314  	C425.914948,151.115616 427.401154,153.721405 428.806732,156.369186  	C429.503662,157.682083 430.652191,159.469940 429.613861,160.571869  	C425.563446,164.870270 429.200653,167.876129 431.147125,171.049316  	C437.155914,180.845062 443.406677,190.492813 449.381409,200.308853  	C453.710968,207.422028 453.378479,208.547440 446.602478,213.345428  	C450.165131,221.277267 453.826874,229.270691 454.773499,238.187744  	C455.393158,244.024841 456.063873,249.894226 454.374512,255.536621  	C451.659729,264.604004 449.851013,274.369629 445.094574,282.302368  	C437.244965,295.393951 431.683472,310.228638 418.929016,320.106201  	C410.033600,326.995117 401.029633,333.365112 389.668732,335.379364  	C387.772339,335.715607 386.341370,336.856445 384.910858,337.996368  	C380.206024,341.745544 375.230194,345.079102 369.833710,347.747650  	C364.339020,350.464752 358.609680,352.080505 352.444122,350.620178  	C344.330444,348.698486 336.570679,351.200256 328.732819,352.454041  	C322.532684,353.445831 316.349884,353.235443 310.347107,351.935211  	C303.128143,350.371552 295.720764,351.181519 288.545471,349.516083  	C285.776367,348.873352 284.755463,350.399933 285.690155,352.972137  	C286.826965,356.100464 288.244415,359.126068 289.410706,362.244659  	C291.279724,367.242523 290.165802,370.351807 285.268799,372.280762  	C281.103973,373.921356 276.750061,375.232147 272.365112,376.126434  	C266.688263,377.284210 263.811218,375.422180 261.355652,369.981750  	C258.261719,363.127014 256.143524,355.930969 254.098297,348.730743  	C252.047531,341.510986 249.815186,334.378418 246.809906,327.492188  	C245.872528,325.344330 245.399887,322.778412 242.110184,323.586731  	C238.636230,324.440338 239.167831,327.173767 239.480057,329.636444  	C241.329590,344.224640 244.624268,358.467285 249.822723,372.246918  	C252.575287,379.543152 251.416916,382.193268 244.058777,384.658356  	C240.276749,385.925385 236.379089,386.882355 232.487671,387.780029  	C225.908264,389.297760 223.023224,387.783081 221.210846,381.375671  	C219.173233,374.171997 217.626236,366.831085 215.738892,359.582916  	C214.061798,353.142120 212.288315,346.723572 210.388458,340.345520  	C209.840790,338.506866 209.072067,336.174652 206.272797,337.278381  	C203.850800,338.233398 201.984253,339.453156 202.823685,342.854523  	C205.547287,353.890442 208.979019,364.673309 214.321091,374.716797  	C220.544937,386.418030 219.832321,388.545135 207.404083,392.307587  	C195.910110,395.787170 194.634644,395.271088 189.426819,384.142303  	C184.344238,373.281189 179.348618,362.377869 174.468765,351.424469  	C173.075531,348.297241 171.263962,346.606995 167.632706,347.031036  	C166.043900,347.216583 164.334702,346.735779 162.729782,346.350769  	C157.778931,345.163116 153.994095,348.612976 154.873032,353.636200  	C157.314056,367.587158 160.658768,381.310120 164.765686,394.874420  	C167.651810,404.406738 165.764740,407.335175 156.059692,409.931793  	C152.843674,410.792236 149.595825,411.580261 146.319748,412.159363  	C140.534805,413.181976 137.628235,411.402161 136.775726,405.557983  	C134.677994,391.177551 130.862244,377.230133 126.867203,363.307892  	C124.901314,356.456970 123.290306,349.931274 115.963150,345.889984  	C110.400375,342.821777 108.814362,336.126556 107.903923,329.873932  	C107.665138,328.234009 107.822723,326.515259 106.375244,325.288879  	C99.233597,319.238037 98.463806,311.464142 100.233574,302.644775  M398.445496,138.026901  	C402.232330,143.845001 406.394531,149.178650 413.628510,150.817902  	C414.713928,148.708801 414.031342,147.401077 413.563568,146.250366  	C411.045929,140.057083 411.360291,133.921585 413.428528,127.695549  	C414.698212,123.873245 414.978119,119.893768 414.945465,115.860435  	C414.898499,110.063599 412.808258,105.069855 408.029724,100.176674  	C413.898499,100.489159 415.730499,104.699532 419.315643,107.064873  	C418.506317,98.474693 413.694489,93.851440 406.505951,91.644897  	C397.479248,88.874123 389.596954,83.950478 381.339050,79.632256  	C376.780365,77.248398 373.468262,71.952972 368.522491,71.766708  	C355.262207,71.267303 342.687805,65.747658 329.282074,66.880898  	C328.528137,66.944633 327.594147,66.663696 326.975159,66.220375  	C324.642517,64.549675 322.551361,65.528778 320.428650,66.598442  	C318.521973,67.559242 316.951263,69.234360 314.376953,69.362648  	C312.675446,67.375961 310.514252,64.281670 307.999664,68.097305  	C305.878815,71.315582 303.608856,70.912918 300.792999,69.963867  	C298.910278,69.329315 296.785095,69.049652 296.527527,71.645752  	C296.151459,75.435951 293.671600,75.063927 291.131500,75.009949  	C284.779266,74.874939 279.424805,77.215889 275.056854,81.755547  	C272.115723,84.812309 268.618408,87.046501 264.853058,88.843361  	C258.783875,91.739639 253.317856,94.371002 249.468842,101.065048  	C243.773331,110.970497 234.934525,118.754005 226.389343,126.492317  	C223.790329,128.845932 220.838455,131.019943 219.131500,134.455994  	C225.529800,137.677139 232.886856,138.939972 237.487579,143.903641  	C241.610016,148.351288 245.896973,148.881729 251.184311,148.887817  	C255.774521,148.893082 256.437439,146.755447 255.039886,143.267334  	C253.340256,139.025208 252.377625,134.745895 252.575180,130.152924  	C252.628113,128.922226 251.984756,127.575592 251.395889,126.416939  	C246.816498,117.406433 249.381744,104.507576 257.114410,98.270454  	C258.606140,97.067230 260.152710,95.487907 262.618042,97.332458  	C261.174164,102.964348 256.339233,107.635612 256.833862,114.072746  	C259.548767,113.885666 259.694763,110.237289 263.155304,111.117180  	C260.787598,122.849419 260.030762,134.628357 263.252167,146.413849  	C264.119751,149.587875 264.894745,152.168274 267.821716,154.194275  	C276.043030,159.884979 276.500092,164.592651 270.046051,172.339218  	C268.981171,173.617340 267.886993,174.886108 266.685211,176.032150  	C263.856445,178.729721 260.935242,181.261917 263.420441,185.808609  	C265.293915,189.236206 263.122345,193.960831 266.979645,196.869415  	C270.543427,199.556641 272.003448,203.432831 272.253693,207.750122  	C272.369110,209.741608 272.929047,211.160583 274.745667,212.249084  	C281.653809,216.388443 284.002899,222.822510 283.486206,230.529953  	C283.347839,232.594101 283.388153,234.392319 284.978271,236.047638  	C290.248718,241.534119 291.113892,248.061508 288.751190,255.027786  	C287.716858,258.077454 287.960938,260.718323 289.075562,263.684998  	C290.921570,268.598511 291.961395,273.929504 289.345917,278.737823  	C286.058960,284.780670 283.884094,290.985046 282.985016,297.807281  	C282.548798,301.117462 280.326172,303.870361 277.821747,306.184479  	C276.002228,307.865753 274.941223,309.876953 275.321838,312.401978  	C276.114319,317.659424 276.556396,323.002136 278.414337,328.033661  	C279.459534,330.864258 280.849365,333.533905 283.854706,334.884399  	C287.417328,336.485382 289.177795,335.291199 288.997925,331.364410  	C288.925110,329.774200 288.218933,328.086151 290.241364,326.070221  	C298.059540,337.464447 308.740326,342.978546 322.391663,341.683197  	C324.337311,337.780853 319.674866,335.195557 321.314301,331.868378  	C322.696777,331.270447 323.741425,331.806671 324.755707,332.377594  	C332.872650,336.946777 341.844421,338.854370 350.856720,340.417603  	C354.906982,341.120148 359.167023,341.389069 363.216705,339.924255  	C376.794586,335.012909 387.265839,326.567627 393.435791,313.248596  	C393.953064,312.131958 394.000732,310.518585 395.926453,310.582977  	C397.785553,312.096954 397.061493,314.198944 397.141907,316.121552  	C397.219269,317.971283 395.522644,320.311462 398.024078,321.510834  	C400.082092,322.497559 401.797089,320.903778 403.473816,319.819580  	C410.714355,315.137543 415.961426,308.512482 421.574341,302.111328  	C428.124634,294.641144 431.613647,286.183380 432.993835,276.587738  	C433.245850,274.835480 432.823975,272.866058 434.474640,271.588043  	C436.030548,270.393250 436.810333,273.722565 438.520935,272.118256  	C440.324005,263.663452 436.764160,255.477646 435.962006,246.609070  	C440.072601,248.168900 440.921783,251.534760 443.279907,254.257721  	C445.403625,246.593506 441.543823,240.610092 439.516083,234.243454  	C442.348846,233.921570 442.277924,237.171783 445.058228,237.574799  	C443.953308,223.315735 435.772888,211.973831 430.200684,199.970642  	C432.591583,198.196060 434.853271,200.696640 436.481415,198.604721  	C437.120697,196.303696 435.597382,194.668427 434.238525,193.404617  	C428.552338,188.116287 425.781677,181.250290 422.845520,174.308075  	C419.874878,167.284302 416.603546,160.199295 407.714844,158.519760  	C406.062897,158.207611 404.565186,156.701172 403.154083,155.552139  	C391.302704,145.902130 385.393494,132.963943 382.742523,118.276222  	C382.057373,114.480370 381.530426,110.566452 378.875824,107.617378  	C374.304291,102.538742 371.442291,96.131828 366.217041,91.579292  	C365.474854,90.932671 364.786652,90.091064 365.820709,88.825310  	C369.122559,87.725639 371.495483,91.678719 375.004639,91.137978  	C374.266510,87.530479 371.781158,85.522980 369.510803,83.350128  	C367.352997,81.285019 363.968933,80.199509 363.708923,76.445518  	C365.270416,75.529167 366.769073,75.678307 368.240540,75.907097  	C378.524780,77.506180 387.616241,90.571350 385.573944,100.737411  	C385.449249,101.358047 385.470123,102.101868 385.693695,102.684639  	C390.095306,114.157387 391.460022,126.716774 398.445496,138.026901  M247.875443,217.143707  	C245.143799,222.137024 241.782562,226.302048 235.574341,227.028961  	C234.678421,227.133865 233.635559,227.754318 233.050140,228.459488  	C228.574066,233.851349 222.600906,233.721329 216.547928,232.897110  	C213.241348,232.446823 210.010254,231.794006 206.640564,232.328217  	C197.094345,233.841599 191.286240,230.111725 188.839096,220.764832  	C188.063385,217.801926 187.296570,215.057343 184.495316,213.266113  	C183.231277,212.457840 181.976608,210.931656 183.352631,209.501434  	C186.957443,205.754684 184.102127,203.400009 182.041428,200.749161  	C174.288254,203.751022 173.563004,205.587265 177.745071,212.462509  	C178.944702,214.434677 178.582565,215.639130 177.349854,217.326965  	C173.546753,222.534119 173.603653,225.174774 177.188156,230.425812  	C178.172623,231.868011 179.952774,233.014267 179.089310,235.183945  	C170.512314,238.354904 168.809845,241.344299 171.132233,248.638947  	C172.154709,251.850540 174.436661,253.939270 176.819290,256.044952  	C178.116104,257.191040 180.184341,257.681793 180.373779,260.264832  	C176.169006,261.755188 172.988785,264.052765 173.190201,269.390564  	C173.458435,276.498169 176.699280,281.650360 183.685287,284.175201  	C186.984009,285.367401 188.674026,286.197723 186.851746,290.460754  	C183.655838,297.937195 187.006958,304.634064 194.554031,308.007568  	C196.181458,308.734985 198.176910,308.879700 199.357651,310.945099  	C197.156570,315.411713 199.091629,318.811249 203.050247,321.215302  	C207.174774,323.720123 210.679688,322.650024 213.357208,318.685364  	C214.739975,316.637909 216.321808,317.067200 218.047226,318.273407  	C220.727554,320.147064 223.682327,321.312653 226.979416,320.505341  	C229.327164,319.930481 231.246475,318.616333 231.808609,315.996582  	C232.339325,313.523346 230.841873,312.396271 228.915527,311.406830  	C227.222977,310.537445 225.885651,309.311676 226.645752,306.665131  	C233.100861,306.168152 240.437469,308.978790 246.016052,305.799866  	C251.589142,302.624084 256.822174,298.072418 260.757690,292.107178  	C262.877716,295.007385 261.771729,297.034973 261.250580,299.052338  	C260.866547,300.539032 260.352448,302.295349 262.112244,303.015411  	C265.376160,304.350891 268.875580,304.505066 271.225922,301.451294  	C273.382080,298.649872 276.387665,295.042206 273.252533,291.715424  	C269.479858,287.712097 271.106598,286.123749 274.747742,283.804657  	C282.726257,278.723053 282.521484,270.300415 274.478760,265.535522  	C274.321442,262.774323 276.489044,261.111053 277.663422,258.979218  	C282.396088,250.388062 280.003632,243.014755 272.081696,242.043716  	C270.856506,239.639236 272.429504,237.556778 272.999298,235.394089  	C274.044586,231.426804 274.568237,227.447586 272.470245,223.744720  	C271.069611,221.272598 269.095795,218.955826 265.715118,220.162323  	C264.316467,220.661453 263.465393,222.908386 261.493927,221.249496  	C259.272247,219.379990 261.025757,217.634567 261.659943,215.875961  	C264.197113,208.840240 262.771942,204.488708 256.271606,200.950912  	C253.766098,199.587296 253.586075,197.906143 254.212463,195.601334  	C255.077896,192.417084 255.198517,189.270554 252.852066,186.628265  	C250.937103,184.471832 248.101929,183.077393 245.770508,184.828339  	C243.565048,186.484711 245.251907,189.055054 246.535965,191.039703  	C247.873322,193.106750 250.067123,212.446136 249.189117,214.724686  	C248.951538,215.341263 248.579330,215.905975 247.875443,217.143707  M142.255417,231.999878  	C138.598221,229.524887 140.623322,224.756119 138.073044,221.284454  	C130.507812,228.005630 117.578918,230.055069 121.338959,244.470505  	C112.157784,244.236847 110.392387,246.016403 110.353249,254.529587  	C110.347336,255.815979 110.645966,257.077728 109.553246,258.265411  	C103.035538,265.349609 102.917915,267.042419 108.190559,274.790955  	C109.148384,276.198578 110.026443,277.373535 108.857727,279.257141  	C102.454224,289.577789 102.858826,293.210388 111.441254,300.902710  	C113.756630,302.977966 114.054665,304.446777 111.467728,306.402283  	C108.782715,308.431976 108.973999,311.302124 109.756248,314.152374  	C110.986938,318.636536 114.497643,320.786713 118.470474,322.420746  	C121.417740,323.632965 123.246964,324.817352 119.914917,328.007355  	C117.155289,330.649384 119.193314,337.250336 123.196388,340.044373  	C126.986855,342.690063 129.228134,341.961243 131.827805,337.205353  	C134.130692,336.960663 135.352173,338.808716 136.899796,339.954895  	C139.378525,341.790588 141.982254,343.131409 145.175354,342.893188  	C147.849319,342.693665 150.124908,341.707062 151.136292,339.086731  	C152.162125,336.428986 149.535431,335.847504 148.205551,334.537537  	C145.476608,331.849426 142.052322,329.505920 142.779724,324.527618  	C147.534958,324.986389 150.456299,330.061127 155.800369,328.535126  	C152.843643,323.004852 147.995605,318.259369 149.916214,311.459045  	C152.037323,311.293335 152.487976,312.489655 152.943710,313.519684  	C155.945190,320.303589 161.080338,323.886139 168.539261,323.932831  	C171.615570,323.952118 173.797150,325.506439 175.979019,327.471497  	C181.061615,332.049072 191.061905,333.019348 197.243652,329.491119  	C194.765244,325.378204 190.145157,322.863068 188.541519,318.188599  	C187.487473,315.116211 185.590698,312.798065 183.203354,310.556915  	C178.946045,306.560242 175.947220,301.547028 176.909332,295.478088  	C177.473648,291.918549 176.383026,290.091614 173.721344,288.007141  	C165.059509,281.223785 162.513443,272.326508 166.216217,262.261932  	C167.022903,260.069244 166.842514,258.641449 165.430634,256.851929  	C161.760513,252.200012 159.285522,246.385056 161.222549,241.007324  	C163.935028,233.476654 165.389481,226.017960 165.361313,218.136139  	C165.360733,217.975540 165.452316,217.816467 165.486328,217.653641  	C166.538406,212.616669 165.625809,211.532654 160.385010,211.356171  	C157.946716,211.274063 155.718109,211.878845 153.799332,213.297974  	C148.524323,217.199371 144.527191,221.903809 144.330826,228.929916  	C144.297379,230.127319 144.822495,231.736435 142.255417,231.999878  M210.420776,209.121475  	C208.279053,207.980896 206.078644,206.730301 207.366333,203.790573  	C208.601044,200.971725 210.921310,201.959259 212.952591,202.716232  	C214.986847,203.474319 216.716095,203.575745 218.421906,201.858765  	C220.297134,199.971237 222.182358,196.494415 225.316162,199.231583  	C228.427734,201.949310 225.503036,204.650375 224.065491,207.162567  	C223.900513,207.450882 223.669922,207.701752 223.505951,207.990555  	C222.682419,209.441254 221.518997,211.056107 223.095490,212.504608  	C224.928238,214.188568 226.719315,212.867249 227.802170,211.432068  	C229.415527,209.293762 230.905777,208.971710 232.958389,211.484207  	C237.939651,199.921570 237.102921,188.883972 233.759445,177.849350  	C233.261169,176.204910 231.858429,174.690338 230.548172,173.463913  	C227.021591,170.162949 220.173706,169.314896 217.890442,172.135635  	C213.863327,177.110733 208.512253,177.559265 202.942917,176.985031  	C194.033722,176.066437 187.177216,183.178497 189.595917,191.693375  	C191.996109,200.143097 196.828018,207.369400 202.669662,213.889771  	C203.664536,215.000259 204.885712,216.257034 206.540344,215.366714  	C208.385040,214.374130 210.003220,214.787079 211.800186,215.389633  	C213.397049,215.925110 215.292587,216.220016 216.189255,214.296738  	C217.193832,212.142044 215.287521,211.404816 213.860962,210.602814  	C212.993698,210.115234 212.038910,209.783340 210.420776,209.121475  M181.708954,172.589890  	C185.307861,174.991959 191.451859,173.112213 192.871964,168.712906  	C194.273056,164.372559 195.754105,163.357697 199.760941,166.350357  	C205.758621,170.830063 210.902313,169.316833 214.407043,162.623383  	C214.942291,161.601151 215.231720,160.395721 216.663864,160.160049  	C221.601898,162.791504 227.359238,162.002792 232.585678,163.836075  	C235.265884,164.776215 235.644440,161.842773 235.431030,159.852798  	C234.746445,153.469238 230.762344,150.365372 224.711426,151.271133  	C221.086395,143.537781 219.934341,143.350906 212.030396,149.354462  	C211.542755,149.037369 210.947067,148.747101 210.468506,148.324280  	C203.243011,141.940353 199.912064,142.902695 197.223175,152.343948  	C196.486404,154.930908 195.267471,154.887421 193.178970,153.999725  	C188.041992,151.816315 186.470535,152.762573 185.676193,158.383835  	C185.444321,160.024719 185.668762,161.711548 183.611267,162.483215  	C178.223846,164.503754 178.755630,168.031403 181.708954,172.589890  M259.017303,331.720398  	C261.151093,338.681946 262.349915,345.926178 265.465881,352.593292  	C267.101685,356.093353 269.742737,356.342163 272.918427,355.218048  	C276.379364,353.992981 275.400513,351.562317 274.624603,349.095001  	C271.939697,340.557037 269.084808,332.049896 267.800812,323.156860  	C267.399811,320.379547 267.041260,317.603363 264.004547,316.831848  	C261.094055,316.092377 258.332642,317.613617 256.276917,319.434387  	C254.055878,321.401581 256.170837,323.729034 256.852661,325.834686  	C257.414215,327.569000 258.101562,329.262604 259.017303,331.720398  M225.698624,330.556915  	C217.585297,329.716827 216.443283,331.372192 219.590759,338.953033  	C220.856918,342.002686 221.731247,345.220703 222.693588,348.389526  	C224.329254,353.775421 224.805847,359.467194 227.215515,364.664398  	C228.940430,368.384705 231.655670,367.312683 234.380142,366.522095  	C237.276215,365.681793 237.541779,363.843353 236.784607,361.117004  	C234.565765,353.127350 232.124893,345.179535 231.363144,336.847534  	C231.091904,333.880890 229.919052,331.344055 225.698624,330.556915  M152.608505,387.375061  	C150.955704,379.900085 149.290695,372.427826 147.656021,364.948883  	C146.980972,361.860382 146.525406,358.715149 145.687881,355.673431  	C144.857971,352.659302 140.132202,351.065063 136.448990,352.430267  	C133.119965,353.664215 134.978073,356.214905 135.514908,357.919617  	C138.518204,367.456512 140.395584,377.268494 142.919922,386.918671  	C143.428619,388.863342 144.077164,391.132751 146.505981,391.147400  	C148.865860,391.161682 151.698563,391.370728 152.608505,387.375061  M194.295883,346.252472  	C191.355240,339.854889 186.913239,345.606903 182.935928,344.687164  	C186.350037,353.938232 189.586838,362.942017 194.634171,371.105499  	C195.808395,373.004700 197.602814,376.324677 200.130035,375.057343  	C203.204453,373.515564 201.665161,370.127930 200.791962,367.444336  	C198.587219,360.668610 195.768417,354.081604 194.295883,346.252472  M166.285309,188.671936  	C162.871414,186.667099 164.429535,185.109985 166.737549,183.614044  	C169.885361,181.573807 173.599121,182.153427 177.367554,181.896072  	C174.643463,176.978180 171.262848,176.653961 167.020187,178.640839  	C163.299301,180.383392 160.329590,182.916260 157.903381,186.139328  	C157.033279,187.295212 156.042633,188.471237 157.076035,190.169510  	C160.155670,195.230484 172.744629,195.948242 177.312607,190.837784  	C173.705170,190.181137 170.359131,189.572067 166.285309,188.671936  M248.960464,162.891068  	C251.620911,162.901703 254.598770,161.961746 256.358154,165.209549  	C252.723999,170.078949 247.062958,171.381348 241.878479,173.924484  	C248.498535,177.116058 262.011078,171.149734 263.438080,164.859161  	C263.763855,163.423141 263.009644,162.637009 261.937897,162.066605  	C257.492828,159.700882 252.856049,157.939957 247.704269,158.429581  	C244.089813,158.773087 242.583206,160.789108 243.172241,164.384598  	C245.317307,164.767120 246.567947,163.273773 248.960464,162.891068  M228.077545,219.284058  	C222.574921,217.822327 222.574921,217.822327 213.861542,222.194687  	C220.715149,225.653702 223.223221,225.233887 228.077545,219.284058  z" style=" "></path>                          <path fill="#FFF" opacity="1.000000" stroke="none" d=" M313.371216,164.932495  	C319.271576,151.377060 341.464600,147.140610 349.754059,157.624207  	C354.863098,164.085480 354.664001,171.618896 349.092468,179.755966  	C348.062103,181.260788 346.893311,182.695679 345.632202,184.013351  	C340.199432,189.689880 341.002777,195.473862 348.003052,199.432648  	C350.744507,200.982971 353.630646,202.383743 356.607086,203.390854  	C363.418091,205.695435 368.685852,203.759155 372.056946,197.325363  	C376.507782,188.830902 378.613220,180.144699 371.760498,171.653061  	C371.288635,171.068344 371.210907,170.165482 370.960480,169.441208  	C374.582947,167.563492 381.002441,168.989380 384.830933,173.086517  	C390.094116,178.719025 394.354401,184.992828 394.606171,193.892166  	C389.932007,192.614395 390.490662,187.497406 386.256592,186.885483  	C383.287079,192.589539 384.275116,198.704010 384.680573,204.701126  	C385.253448,213.174362 384.291138,221.523468 377.507507,227.111618  	C372.645813,231.116531 368.833008,235.503174 365.071381,240.504120  	C356.953064,251.297318 340.692444,252.171692 330.632874,243.241470  	C329.143860,241.919647 327.707489,241.446289 325.691620,241.591522  	C318.146240,242.135117 312.049011,239.266663 307.548706,233.172729  	C302.661255,226.554642 299.391571,219.079010 296.228210,211.549622  	C295.350983,209.461670 294.953918,207.017471 292.509735,205.912674  	C290.122833,207.114441 290.640533,209.684769 289.721130,211.535812  	C289.186768,212.611679 288.679138,213.716507 287.227356,213.540863  	C285.841797,213.373230 285.152405,212.275070 285.132355,211.092087  	C284.971588,201.605316 286.103241,192.454437 292.824036,185.007233  	C293.963043,183.745148 295.568207,182.842453 297.307068,183.600571  	C299.279541,184.460541 298.768494,186.231796 298.538696,187.932724  	C297.334351,196.848083 305.075958,210.030487 313.456238,213.502792  	C319.872314,216.161224 325.207458,214.211517 329.756714,209.518784  	C334.406738,204.722076 336.903320,199.086563 335.215118,192.288742  	C334.597961,189.803680 332.632050,188.657730 330.095947,188.150909  	C326.295685,187.391464 322.956696,185.583252 319.815735,183.265991  	C313.614990,178.691330 311.430786,172.769562 313.371216,164.932495  M338.931030,211.058395  	C336.985565,212.862167 335.032867,214.658249 333.096802,216.472031  	C331.429230,218.034302 331.221161,219.713989 332.218414,221.853653  	C336.070709,230.119232 345.923279,232.674255 353.124481,227.167236  	C356.926208,224.259918 359.730774,216.877594 357.658569,213.283905  	C355.358002,209.294174 350.859497,209.484482 347.070984,208.761078  	C345.277222,211.728928 347.050140,214.865921 345.216248,217.496719  	C341.933167,216.307983 342.716003,211.857117 338.931030,211.058395  M342.278595,238.124344  	C341.017212,238.340286 339.819763,237.044800 338.491150,237.932861  	C344.010223,242.787384 354.218445,241.335724 358.204407,234.834305  	C353.060791,236.450317 348.395203,238.977158 342.278595,238.124344  M336.293701,160.515121  	C332.502502,158.099991 329.593109,160.461868 325.558105,162.198364  	C329.951813,163.496567 332.890625,161.907074 336.293701,160.515121  M316.923187,229.800278  	C319.304718,232.504776 321.895294,232.722580 325.386627,230.367218  	C322.311096,228.979874 319.745758,228.667419 316.923187,229.800278  M374.836761,214.351547  	C373.333282,215.822067 371.072723,216.762527 370.888580,220.092972  	C374.058105,218.891861 375.959747,217.646896 374.836761,214.351547  z"></path> <path fill="#FFF" opacity="1.000000" stroke="none" d=" M382.444946,283.409790  	C378.746307,286.839600 375.307343,290.059326 370.245758,290.250214  	C367.998962,290.334961 367.394440,292.265381 366.151825,293.528473  	C355.655609,304.197937 358.220032,304.949036 345.509552,297.351166  	C343.437958,296.112854 341.533264,294.934692 339.354126,297.298676  	C338.806824,297.892395 337.470612,298.098907 336.567932,297.973267  	C325.339874,296.410767 309.208801,278.417511 315.157745,262.010345  	C320.621033,270.881592 322.107635,282.053101 332.526001,286.786530  	C335.897766,282.580658 331.073547,277.717926 334.908295,272.749817  	C336.694214,281.855377 343.800629,285.198517 349.705200,289.788879  	C353.267975,292.558655 356.237366,292.473175 359.210785,289.125946  	C364.090698,283.632599 368.816437,278.063782 370.008423,270.436859  	C370.135101,269.626099 370.411591,268.828705 370.704620,268.057831  	C370.878265,267.600983 371.220612,267.208221 371.614594,266.584869  	C375.998016,269.781219 372.328491,274.886475 375.487152,278.583649  	C384.653381,270.297882 383.717834,258.955627 384.146973,247.487701  	C392.700989,255.004303 391.432587,272.162842 382.444946,283.409790  z"></path> <path fill="#FFF" opacity="1.000000" stroke="none" d=" M404.450562,227.352890  	C406.216125,218.320938 405.398102,209.870560 401.946381,201.246323  	C408.152740,202.039658 410.067535,206.687759 413.508362,210.958008  	C418.653137,199.661911 416.590820,188.837540 414.679993,178.356110  	C418.058838,177.051239 419.096680,178.940384 420.220337,180.552734  	C423.248505,184.897949 425.023071,189.792343 425.009735,195.026520  	C424.984070,205.119324 422.579071,214.742752 418.246796,223.878845  	C416.964661,226.582748 414.928223,227.364075 412.144928,225.840363  	C409.715637,235.837448 405.777985,244.213547 398.485443,251.361954  	C396.306122,247.875443 395.992004,244.556427 398.094391,242.184296  	C401.840454,237.957642 403.100891,232.928696 404.450562,227.352890  z"></path> <path fill="#FFF" opacity="1.000000" stroke="none" d=" M371.266052,127.703247  	C373.000427,129.645813 375.312561,130.579239 376.428009,132.811707  	C374.562653,135.278259 372.202789,134.773209 370.466431,133.795349  	C366.956116,131.818451 364.421112,132.606491 361.564484,135.128586  	C359.800354,136.686127 357.241669,137.343735 355.157104,138.348740  	C355.126373,141.121933 357.852081,142.581863 357.342010,145.434128  	C355.339783,146.062408 354.052643,144.602783 352.822906,143.456528  	C349.663483,140.511581 346.516663,137.538254 343.564880,134.388779  	C338.648529,129.143173 338.530609,124.620865 342.892670,118.687790  	C345.545135,115.079971 352.629791,113.713310 357.587280,115.743599  	C363.411896,118.129028 366.586884,123.503815 371.266052,127.703247  z"></path> <path fill="#FFF" opacity="1.000000" stroke="none" d=" M302.207947,156.899475  	C301.130341,158.668564 301.044037,160.882126 298.761749,161.019760  	C298.509644,160.877075 298.246277,160.786835 298.252563,160.723236  	C298.985992,153.296570 294.695374,151.498108 288.288269,150.846939  	C285.377319,150.551086 284.060394,151.360123 282.503632,153.228851  	C281.552826,154.370209 280.239166,155.500534 278.616791,154.559998  	C276.937897,153.586670 277.492310,151.860413 277.973907,150.515213  	C279.820190,145.358276 281.450500,140.073792 283.866608,135.185455  	C286.199738,130.464920 290.302490,127.471725 295.896698,127.732689  	C301.337738,127.986488 303.717194,132.081360 305.948364,136.320312  	C306.810120,137.957550 306.707001,139.505981 306.379059,141.143890  	C305.335327,146.356812 304.337585,151.583496 302.207947,156.899475  z"></path> <path fill="#FFF" opacity="1.000000" stroke="none" d=" M314.701843,315.578491  	C306.229309,308.929504 303.255798,301.769348 307.082825,295.263702  	C311.801819,304.111816 317.393646,311.672852 326.586884,316.592865  	C321.759186,319.362274 318.439026,317.083191 314.701843,315.578491  z"></path> <path fill="#FFF" opacity="1.000000" stroke="none" d=" M392.370361,295.320984  	C397.649719,289.317169 397.903564,281.670410 400.898926,274.874695  	C404.548096,279.919464 403.337433,285.275574 401.668488,290.489929  	C399.394226,297.595490 394.256592,301.621552 387.506439,301.861084  	C388.174225,299.014069 390.895386,297.818207 392.370361,295.320984  z"></path> <path fill="#FFF" opacity="1.000000" stroke="none" d=" M299.643616,261.399780  	C303.063385,264.159058 304.188568,267.575195 304.639404,271.511505  	C299.675781,270.733063 295.443054,266.459930 295.058380,262.173370  	C294.966766,261.152496 294.895782,260.109985 296.050903,259.677490  	C297.574677,259.106964 298.508331,260.126404 299.643616,261.399780  z"></path> <path fill="#FFF" opacity="1.000000" stroke="none" d=" M206.416351,278.935211  	C201.983841,276.461548 200.314789,272.953461 200.866730,268.350189  	C201.016327,267.102570 201.656845,266.169312 202.882660,265.756012  	C203.975388,265.387573 204.938187,265.714081 205.371109,266.764435  	C207.865204,272.815887 212.622421,273.345001 218.161392,272.167877  	C218.531876,272.089142 219.019531,272.561615 219.435211,272.768982  	C218.327057,278.914917 213.501221,281.305603 206.416351,278.935211  z"></path> <path fill="#FFF" opacity="1.000000" stroke="none" d=" M236.478134,280.679932  	C235.796387,279.301819 235.313568,278.229980 236.384857,277.206909  	C243.948868,277.860657 245.047623,277.215302 247.682724,270.186127  	C248.119553,269.020874 248.382416,267.878448 249.896622,268.099304  	C251.848068,268.383911 252.700516,269.902069 252.889542,271.594574  	C253.409210,276.247742 251.868958,280.023865 247.753616,282.580353  	C243.589401,285.167175 239.927002,284.542023 236.478134,280.679932  z"></path> <path fill="#FFF" opacity="1.000000" stroke="none" d=" M243.972321,245.913635  	C247.269363,250.031586 246.958878,254.977722 243.257523,257.698822  	C240.217392,259.933807 237.007751,260.476898 233.613342,256.283356  	C238.864944,254.388290 241.302917,250.156662 243.972321,245.913635  z"></path> <path fill="#FFF" opacity="1.000000" stroke="none" d=" M255.845062,245.738434  	C258.659027,242.283432 258.825256,238.515015 258.365631,234.256348  	C262.733551,235.179810 262.900452,238.265717 262.667267,241.099304  	C262.400146,244.345261 261.235931,247.397919 257.406891,248.083588  	C256.030884,248.329987 255.106171,247.700195 255.845062,245.738434  z"></path> <path fill="#FFF" opacity="1.000000" stroke="none" d=" M196.946045,252.352417  	C195.955719,249.785187 196.967804,248.784332 199.095673,249.258621  	C201.261765,249.741440 203.689346,249.731537 206.002197,252.196533  	C203.026535,255.042007 200.236557,254.962479 196.946045,252.352417  z"></path> <path fill="#FFF" opacity="1.000000" stroke="none" d=" M126.636398,284.894470  	C127.702812,287.158386 126.959518,288.048248 124.916176,287.921936  	C121.374763,287.702942 117.385948,281.759613 117.387131,276.771637  	C117.388496,270.980133 120.266624,267.368530 125.545334,266.943329  	C124.258858,272.943268 122.650330,278.962646 126.636398,284.894470  z"></path> <path fill="#FFF" opacity="1.000000" stroke="none" d=" M147.341003,270.532959  	C148.321121,272.103973 149.121887,273.343628 150.015076,274.726349  	C147.481827,277.357300 145.285385,275.477631 143.418320,274.241882  	C139.596619,271.712372 139.158737,267.723877 139.788559,263.610657  	C140.227661,260.743011 141.919250,258.919769 145.450867,258.556396  	C145.515839,262.694550 145.020584,266.693512 147.341003,270.532959  z"></path> <path fill="#FFF" opacity="1.000000" stroke="none" d=" M130.711304,254.814301  	C127.754074,248.792252 129.823380,244.602310 136.424576,243.374344  	C135.834503,247.679779 133.719101,251.588303 134.354355,255.682327  	C132.713638,256.727570 131.910095,255.618698 130.711304,254.814301  z"></path> <path fill="#FFF" opacity="1.000000" stroke="none" d=" M191.370422,186.354080  	C193.347336,184.219971 195.185013,182.668716 198.046936,183.553314  	C201.557053,184.638229 204.011810,188.404907 202.928101,191.573578  	C201.841461,194.750824 199.499969,196.475479 196.068985,195.757050  	C192.205338,194.948059 190.125809,190.869659 191.370422,186.354080  z"></path> <path fill="#FFF" opacity="1.000000" stroke="none" d=" M227.026978,188.142456  	C221.516296,185.656509 219.876648,180.871872 223.161133,177.551620  	C225.487732,175.199707 228.360687,174.411423 231.228851,176.570480  	C234.361649,178.928772 234.096603,181.900574 232.154510,184.938385  	C231.038513,186.684021 229.639389,188.027725 227.026978,188.142456  z"></path> </svg>